# Blender v2.92.0 OBJ File: 'carta_player.blend'
# www.blender.org
mtllib card_player.mtl
o Plane
v -4.232668 -7.200162 -0.153182
v 4.232668 -7.200162 -0.153182
v -4.232668 7.200162 0.153182
v 4.232668 7.200162 0.153182
v -4.232668 7.207527 -0.192976
v -4.232668 -7.192798 -0.499341
v 4.232668 -7.192798 -0.499341
v 4.232668 7.207527 -0.192976
vt 0.000000 1.000000
vt 0.000000 0.500000
vt 0.500000 0.500000
vt 0.500000 1.000000
vt 0.500000 0.500000
vt 0.000000 0.500000
vt 0.000000 0.000000
vt 0.500000 0.000000
vt 0.584920 0.500000
vt 0.584920 0.000000
vt 0.613227 0.000000
vt 0.613227 0.500000
vt 0.500000 0.500000
vt 0.500000 0.000000
vt 0.528307 0.000000
vt 0.528307 0.500000
vt 0.528307 0.500000
vt 0.528307 0.000000
vt 0.556614 0.000000
vt 0.556614 0.500000
vt 0.556614 0.500000
vt 0.556614 0.000000
vt 0.584920 0.000000
vt 0.584920 0.500000
vn 0.0000 0.0213 -0.9998
vn 0.0000 -0.0213 0.9998
vn 0.0000 -0.9998 -0.0213
vn 0.0000 0.9998 0.0213
vn -1.0000 -0.0000 0.0000
vn 1.0000 0.0000 0.0000
usemtl Material.003
s off
f 1/1/1 3/2/1 4/3/1 2/4/1
f 6/5/2 7/6/2 8/7/2 5/8/2
f 4/9/3 3/10/3 5/11/3 8/12/3
f 1/13/4 2/14/4 7/15/4 6/16/4
f 2/17/5 4/18/5 8/19/5 7/20/5
f 3/21/6 1/22/6 6/23/6 5/24/6
