# Blender v2.92.0 OBJ File: 'R34.blend'
# www.blender.org
mtllib Pencil Bottom.mtl
o Cone_Cone.001
v -0.000125 2.047502 -0.669967
v -0.256511 2.047453 -0.618969
v -0.473864 2.047413 -0.473738
v -0.619094 2.047386 -0.256385
v -0.670093 2.047376 0.000000
v -0.619094 2.047386 0.256385
v -0.473864 2.047413 0.473738
v -0.256511 2.047453 0.618969
v -0.000126 2.047502 0.669967
v 0.256260 2.047549 0.618969
v 0.473613 2.047590 0.473738
v 0.618843 2.047617 0.256385
v 0.669842 2.047627 -0.000000
v 0.618843 2.047617 -0.256385
v 0.473613 2.047590 -0.473738
v 0.256260 2.047549 -0.618969
v 0.000125 0.707567 0.000000
vt 0.116083 0.480153
vt 0.346870 0.928038
vt 0.046741 0.525217
vt 0.046741 0.536936
vt 0.335151 0.918272
vt 0.000000 0.586900
vt 0.927135 0.497664
vt 0.927135 0.986328
vt 0.844605 0.502956
vt 0.836793 0.491238
vt 0.919322 0.988281
vt 0.751631 0.513157
vt 0.759443 0.524876
vt 0.925182 0.980469
vt 0.684614 0.560085
vt 0.788962 0.002864
vt 0.774143 0.445052
vt 0.720604 0.000000
vt 0.775693 0.440402
vt 0.639562 0.016474
vt 0.746240 0.441952
vt 0.558175 0.049779
vt 0.760191 0.437021
vt 0.488833 0.094843
vt 0.729187 0.435751
vt 0.442093 0.144807
vt 0.684614 0.497664
vt 0.692934 0.990130
vt 0.602084 0.502956
vt 0.692934 0.991680
vt 0.516922 0.524876
vt 0.442093 0.560085
vt 0.346869 0.458629
vt 0.346870 0.953428
vt 0.278511 0.455765
vt 0.265015 0.442093
vt 0.177078 0.442093
vt 0.095834 0.408440
vt 0.033652 0.346259
vt 0.000000 0.265015
vt 0.000000 0.177078
vt 0.033652 0.095834
vt 0.095834 0.033652
vt 0.177077 0.000000
vt 0.265015 0.000000
vt 0.346259 0.033652
vt 0.408440 0.095834
vt 0.442093 0.177078
vt 0.442093 0.265015
vt 0.408440 0.346259
vt 0.346259 0.408440
vt 0.197470 0.472239
vt 0.339057 0.943663
vt 0.116083 0.505543
vn -0.1751 -0.4403 -0.8806
vn -0.4987 -0.4404 -0.7465
vn -0.7465 -0.4404 -0.4988
vn -0.8805 -0.4405 -0.1752
vn -0.8805 -0.4405 0.1752
vn -0.7465 -0.4404 0.4988
vn -0.4987 -0.4404 0.7465
vn -0.1751 -0.4403 0.8806
vn 0.1752 -0.4403 0.8806
vn 0.4989 -0.4402 0.7465
vn 0.7466 -0.4402 0.4988
vn 0.8807 -0.4401 0.1752
vn 0.8807 -0.4401 -0.1752
vn 0.7466 -0.4402 -0.4988
vn -0.0002 1.0000 0.0000
vn 0.4989 -0.4402 -0.7465
vn 0.1752 -0.4403 -0.8806
usemtl Material.003
s off
f 1/1/1 17/2/1 2/3/1
f 2/4/2 17/5/2 3/6/2
f 3/7/3 17/8/3 4/9/3
f 4/10/4 17/11/4 5/12/4
f 5/13/5 17/14/5 6/15/5
f 6/16/6 17/17/6 7/18/6
f 7/18/7 17/19/7 8/20/7
f 8/20/8 17/21/8 9/22/8
f 9/22/9 17/23/9 10/24/9
f 10/24/10 17/25/10 11/26/10
f 11/27/11 17/28/11 12/29/11
f 12/29/12 17/30/12 13/31/12
f 13/31/13 17/30/13 14/32/13
f 14/33/14 17/34/14 15/35/14
f 1/36/15 2/37/15 3/38/15 4/39/15 5/40/15 6/41/15 7/42/15 8/43/15 9/44/15 10/45/15 11/46/15 12/47/15 13/48/15 14/49/15 15/50/15 16/51/15
f 15/35/16 17/34/16 16/52/16
f 16/52/17 17/53/17 1/54/17
