# Blender v2.92.0 OBJ File: 'R34.blend'
# www.blender.org
mtllib Pencil Mid.mtl
o Cylinder
v 0.000000 2.048304 -0.677955
v 0.000000 8.911728 -0.653300
v 0.130355 2.048304 -0.664928
v 0.125614 8.911728 -0.640747
v 0.255700 2.048304 -0.626349
v 0.246400 8.911728 -0.603570
v 0.371218 2.048304 -0.563699
v 0.357718 8.911728 -0.543199
v 0.472471 2.048304 -0.479387
v 0.455289 8.911728 -0.461953
v 0.555567 2.048304 -0.376652
v 0.535363 8.911728 -0.362954
v 0.617313 2.048304 -0.259442
v 0.594863 8.911728 -0.250007
v 0.655336 2.048304 -0.132263
v 0.631504 8.911728 -0.127453
v 0.668175 2.048304 -0.000000
v 0.643875 8.911728 -0.000000
v 0.655336 2.048304 0.132262
v 0.631504 8.911728 0.127452
v 0.617313 2.048304 0.259442
v 0.594863 8.911728 0.250007
v 0.555567 2.048304 0.376651
v 0.535363 8.911728 0.362954
v 0.472471 2.048304 0.479386
v 0.455289 8.911728 0.461953
v 0.371218 2.048304 0.563699
v 0.357718 8.911728 0.543199
v 0.255699 2.048304 0.626349
v 0.246400 8.911728 0.603570
v 0.130354 2.048304 0.664928
v 0.125614 8.911728 0.640747
v -0.000000 2.048304 0.677955
v -0.000000 8.911728 0.653300
v -0.130355 2.048304 0.664928
v -0.125614 8.911728 0.640747
v -0.255700 2.048304 0.626348
v -0.246401 8.911728 0.603570
v -0.371219 2.048304 0.563699
v -0.357718 8.911728 0.543199
v -0.472471 2.048304 0.479386
v -0.455289 8.911728 0.461952
v -0.555568 2.048304 0.376651
v -0.535363 8.911728 0.362953
v -0.617314 2.048304 0.259442
v -0.594863 8.911728 0.250006
v -0.655336 2.048304 0.132262
v -0.631504 8.911728 0.127452
v -0.668175 2.048304 -0.000001
v -0.643875 8.911728 -0.000001
v -0.655336 2.048304 -0.132263
v -0.631503 8.911728 -0.127453
v -0.617313 2.048304 -0.259443
v -0.594863 8.911728 -0.250008
v -0.555567 2.048304 -0.376652
v -0.535362 8.911728 -0.362955
v -0.472471 2.048304 -0.479387
v -0.455288 8.911728 -0.461953
v -0.371217 2.048304 -0.563700
v -0.357717 8.911728 -0.543199
v -0.255699 2.048304 -0.626349
v -0.246400 8.911728 -0.603571
v -0.130353 2.048304 -0.664928
v -0.125613 8.911728 -0.640747
vt 0.024623 0.000523
vt 0.028721 0.504505
vt 0.004994 0.504819
vt 0.000000 0.000850
vt 0.774623 0.000693
vt 0.769866 0.504669
vt 0.741966 0.504385
vt 0.745670 0.000399
vt 0.710965 0.504175
vt 0.713499 0.000180
vt 0.678055 0.504045
vt 0.679346 0.000045
vt 0.644499 0.504001
vt 0.644524 0.000000
vt 0.611588 0.504045
vt 0.610371 0.000045
vt 0.580587 0.504175
vt 0.578200 0.000180
vt 0.552686 0.504385
vt 0.549246 0.000399
vt 0.528958 0.504669
vt 0.524623 0.000693
vt 1.000000 0.000523
vt 0.995902 0.504505
vt 0.968001 0.504258
vt 0.971047 0.000267
vt 0.937000 0.504087
vt 0.938875 0.000090
vt 0.904089 0.504000
vt 0.904722 0.000000
vt 0.870534 0.504000
vt 0.869900 0.000000
vt 0.837623 0.504087
vt 0.835748 0.000090
vt 0.806621 0.504258
vt 0.803576 0.000267
vt 0.778721 0.504505
vt 0.774623 0.000523
vt 0.524623 0.000693
vt 0.519866 0.504669
vt 0.491966 0.504385
vt 0.495670 0.000399
vt 0.460965 0.504175
vt 0.463499 0.000180
vt 0.428055 0.504045
vt 0.429346 0.000045
vt 0.394499 0.504001
vt 0.394524 0.000000
vt 0.361588 0.504045
vt 0.360371 0.000045
vt 0.330586 0.504175
vt 0.328200 0.000180
vt 0.302686 0.504385
vt 0.299246 0.000399
vt 0.278958 0.504669
vt 0.274623 0.000693
vt 0.274623 0.000850
vt 0.269629 0.504819
vt 0.245902 0.504505
vt 0.250000 0.000523
vt 0.218001 0.504258
vt 0.221046 0.000267
vt 0.187000 0.504087
vt 0.188875 0.000090
vt 0.154089 0.504000
vt 0.154722 0.000000
vt 0.120533 0.504000
vt 0.119900 0.000000
vt 0.087623 0.504087
vt 0.085747 0.000090
vt 0.848212 0.838818
vt 0.815301 0.845365
vt 0.781746 0.845365
vt 0.748835 0.838818
vt 0.717834 0.825977
vt 0.689933 0.807335
vt 0.666206 0.783607
vt 0.647563 0.755707
vt 0.634722 0.724706
vt 0.628176 0.691795
vt 0.628176 0.658239
vt 0.634722 0.625328
vt 0.647563 0.594327
vt 0.666206 0.566427
vt 0.689933 0.542699
vt 0.717834 0.524057
vt 0.748835 0.511215
vt 0.781746 0.504669
vt 0.815301 0.504669
vt 0.848212 0.511215
vt 0.879213 0.524057
vt 0.907114 0.542699
vt 0.930841 0.566427
vt 0.949484 0.594327
vt 0.962325 0.625328
vt 0.968871 0.658239
vt 0.968871 0.691795
vt 0.962325 0.724705
vt 0.949484 0.755707
vt 0.930841 0.783607
vt 0.907114 0.807335
vt 0.879213 0.825977
vt 0.056621 0.504258
vt 0.053576 0.000267
vt 0.621382 0.733009
vt 0.608057 0.765181
vt 0.588711 0.794134
vt 0.564088 0.818757
vt 0.535134 0.838103
vt 0.502963 0.851429
vt 0.468810 0.858222
vt 0.433988 0.858222
vt 0.399836 0.851429
vt 0.367664 0.838103
vt 0.338711 0.818757
vt 0.314088 0.794134
vt 0.294742 0.765181
vt 0.281416 0.733010
vt 0.274623 0.698857
vt 0.274623 0.664035
vt 0.281416 0.629882
vt 0.294742 0.597711
vt 0.314088 0.568757
vt 0.338711 0.544134
vt 0.367664 0.524788
vt 0.399835 0.511463
vt 0.433988 0.504669
vt 0.468810 0.504669
vt 0.502963 0.511463
vt 0.535134 0.524788
vt 0.564088 0.544134
vt 0.588711 0.568757
vt 0.608057 0.597711
vt 0.621382 0.629882
vt 0.628176 0.664035
vt 0.628176 0.698857
vn 0.0994 0.0036 -0.9950
vn 0.2942 0.0036 -0.9557
vn 0.4767 0.0036 -0.8790
vn 0.6399 0.0036 -0.7685
vn 0.7775 0.0035 -0.6289
vn 0.8847 0.0035 -0.4661
vn 0.9581 0.0035 -0.2864
vn 0.9953 0.0035 -0.0966
vn 0.9953 0.0035 0.0966
vn 0.9581 0.0035 0.2864
vn 0.8847 0.0035 0.4661
vn 0.7775 0.0035 0.6289
vn 0.6399 0.0036 0.7685
vn 0.4767 0.0036 0.8790
vn 0.2942 0.0036 0.9557
vn 0.0994 0.0036 0.9950
vn -0.0994 0.0036 0.9950
vn -0.2942 0.0036 0.9557
vn -0.4767 0.0036 0.8790
vn -0.6399 0.0036 0.7685
vn -0.7775 0.0035 0.6289
vn -0.8847 0.0035 0.4661
vn -0.9581 0.0035 0.2864
vn -0.9953 0.0035 0.0966
vn -0.9953 0.0035 -0.0966
vn -0.9581 0.0035 -0.2864
vn -0.8847 0.0035 -0.4661
vn -0.7775 0.0035 -0.6289
vn -0.6399 0.0036 -0.7685
vn -0.4767 0.0036 -0.8790
vn 0.0000 1.0000 0.0000
vn -0.2942 0.0036 -0.9557
vn -0.0994 0.0036 -0.9950
vn 0.0000 -1.0000 0.0000
usemtl Material.002
s off
f 1/1/1 2/2/1 4/3/1 3/4/1
f 3/5/2 4/6/2 6/7/2 5/8/2
f 5/8/3 6/7/3 8/9/3 7/10/3
f 7/10/4 8/9/4 10/11/4 9/12/4
f 9/12/5 10/11/5 12/13/5 11/14/5
f 11/14/6 12/13/6 14/15/6 13/16/6
f 13/16/7 14/15/7 16/17/7 15/18/7
f 15/18/8 16/17/8 18/19/8 17/20/8
f 17/20/9 18/19/9 20/21/9 19/22/9
f 19/23/10 20/24/10 22/25/10 21/26/10
f 21/26/11 22/25/11 24/27/11 23/28/11
f 23/28/12 24/27/12 26/29/12 25/30/12
f 25/30/13 26/29/13 28/31/13 27/32/13
f 27/32/14 28/31/14 30/33/14 29/34/14
f 29/34/15 30/33/15 32/35/15 31/36/15
f 31/36/16 32/35/16 34/37/16 33/38/16
f 33/39/17 34/40/17 36/41/17 35/42/17
f 35/42/18 36/41/18 38/43/18 37/44/18
f 37/44/19 38/43/19 40/45/19 39/46/19
f 39/46/20 40/45/20 42/47/20 41/48/20
f 41/48/21 42/47/21 44/49/21 43/50/21
f 43/50/22 44/49/22 46/51/22 45/52/22
f 45/52/23 46/51/23 48/53/23 47/54/23
f 47/54/24 48/53/24 50/55/24 49/56/24
f 49/57/25 50/58/25 52/59/25 51/60/25
f 51/60/26 52/59/26 54/61/26 53/62/26
f 53/62/27 54/61/27 56/63/27 55/64/27
f 55/64/28 56/63/28 58/65/28 57/66/28
f 57/66/29 58/65/29 60/67/29 59/68/29
f 59/68/30 60/67/30 62/69/30 61/70/30
f 4/71/31 2/72/31 64/73/31 62/74/31 60/75/31 58/76/31 56/77/31 54/78/31 52/79/31 50/80/31 48/81/31 46/82/31 44/83/31 42/84/31 40/85/31 38/86/31 36/87/31 34/88/31 32/89/31 30/90/31 28/91/31 26/92/31 24/93/31 22/94/31 20/95/31 18/96/31 16/97/31 14/98/31 12/99/31 10/100/31 8/101/31 6/102/31
f 61/70/32 62/69/32 64/103/32 63/104/32
f 63/104/33 64/103/33 2/2/33 1/1/33
f 1/105/34 3/106/34 5/107/34 7/108/34 9/109/34 11/110/34 13/111/34 15/112/34 17/113/34 19/114/34 21/115/34 23/116/34 25/117/34 27/118/34 29/119/34 31/120/34 33/121/34 35/122/34 37/123/34 39/124/34 41/125/34 43/126/34 45/127/34 47/128/34 49/129/34 51/130/34 53/131/34 55/132/34 57/133/34 59/134/34 61/135/34 63/136/34
